<svg width="91" height="21" viewBox="0 0 91 21" fill="none" xmlns="http://www.w3.org/2000/svg">
<rect y="0.151428" width="91" height="20.1104" rx="10.0552" fill="#70CBE8"/>
<path d="M7.39203 7.27075H8.33441V12.3049C8.33441 12.9853 8.12933 13.5175 7.71918 13.9016C7.31228 14.2857 6.76866 14.4778 6.08832 14.4778C5.38194 14.4778 4.83181 14.2971 4.43793 13.9358C4.04405 13.5745 3.84711 13.0683 3.84711 12.4172H4.78461C4.78461 12.8241 4.89528 13.1415 5.11664 13.3694C5.34125 13.5972 5.66514 13.7112 6.08832 13.7112C6.47569 13.7112 6.78819 13.5891 7.02582 13.345C7.2667 13.1008 7.38877 12.759 7.39203 12.3196V7.27075Z" fill="#1C19A2"/>
<path d="M13.0512 13.8577C12.6996 14.2711 12.1837 14.4778 11.5034 14.4778C10.9402 14.4778 10.5105 14.315 10.2143 13.9895C9.92133 13.6607 9.77321 13.1757 9.76996 12.5344V9.09692H10.6733V12.51C10.6733 13.3108 10.9988 13.7112 11.6498 13.7112C12.3399 13.7112 12.7989 13.454 13.0268 12.9397V9.09692H13.9301V14.3801H13.0707L13.0512 13.8577ZM18.3832 12.9788C18.3832 12.7346 18.2905 12.5458 18.1049 12.4124C17.9226 12.2756 17.602 12.1584 17.143 12.0608C16.6873 11.9631 16.3243 11.8459 16.0541 11.7092C15.7872 11.5725 15.5886 11.4097 15.4584 11.2209C15.3315 11.0321 15.268 10.8075 15.268 10.5471C15.268 10.1142 15.4503 9.74797 15.8149 9.44849C16.1827 9.14901 16.6515 8.99927 17.2211 8.99927C17.8201 8.99927 18.3051 9.15389 18.6762 9.46313C19.0506 9.77238 19.2377 10.1679 19.2377 10.6497H18.3295C18.3295 10.4023 18.2237 10.189 18.0121 10.01C17.8038 9.83097 17.5401 9.74146 17.2211 9.74146C16.8924 9.74146 16.6352 9.81307 16.4496 9.9563C16.2641 10.0995 16.1713 10.2867 16.1713 10.5178C16.1713 10.7359 16.2576 10.9003 16.4301 11.011C16.6026 11.1217 16.9135 11.2275 17.3627 11.3284C17.8152 11.4293 18.1814 11.5497 18.4614 11.6897C18.7413 11.8297 18.948 11.9989 19.0815 12.1975C19.2182 12.3928 19.2866 12.6321 19.2866 12.9153C19.2866 13.3873 19.0978 13.7665 18.7202 14.053C18.3425 14.3362 17.8526 14.4778 17.2504 14.4778C16.8273 14.4778 16.4529 14.4029 16.1274 14.2532C15.8019 14.1034 15.5463 13.8951 15.3608 13.6282C15.1785 13.358 15.0873 13.0667 15.0873 12.7542H15.9907C16.0069 13.0569 16.1274 13.2978 16.352 13.4768C16.5799 13.6526 16.8793 13.7405 17.2504 13.7405C17.5922 13.7405 17.8657 13.6721 18.0707 13.5354C18.2791 13.3954 18.3832 13.2099 18.3832 12.9788ZM21.6889 7.81763V9.09692H22.6752V9.79517H21.6889V13.0715C21.6889 13.2831 21.7328 13.4426 21.8207 13.55C21.9086 13.6542 22.0584 13.7063 22.27 13.7063C22.3741 13.7063 22.5174 13.6868 22.6996 13.6477V14.3801C22.462 14.4452 22.2309 14.4778 22.0063 14.4778C21.6026 14.4778 21.2983 14.3557 21.0932 14.1116C20.8881 13.8674 20.7856 13.5208 20.7856 13.0715V9.79517H19.8237V9.09692H20.7856V7.81763H21.6889ZM33.7885 14.4778C33.0724 14.4778 32.4897 14.2434 32.0405 13.7747C31.5912 13.3027 31.3666 12.6728 31.3666 11.885V11.719C31.3666 11.1949 31.4659 10.7278 31.6645 10.3176C31.8663 9.90422 32.1463 9.58195 32.5043 9.35083C32.8657 9.11646 33.2563 8.99927 33.6762 8.99927C34.3631 8.99927 34.8969 9.2255 35.2778 9.67798C35.6586 10.1305 35.8491 10.7782 35.8491 11.6213V11.9973H32.27C32.283 12.5181 32.4343 12.9397 32.7241 13.262C33.017 13.581 33.3881 13.7405 33.8373 13.7405C34.1564 13.7405 34.4265 13.6754 34.6479 13.5452C34.8692 13.415 35.0629 13.2424 35.2289 13.0276L35.7807 13.4573C35.338 14.1376 34.6739 14.4778 33.7885 14.4778ZM33.6762 9.74146C33.3116 9.74146 33.0056 9.87492 32.7582 10.1418C32.5108 10.4055 32.3578 10.7766 32.2993 11.2551H34.9457V11.1868C34.9197 10.7278 34.796 10.373 34.5746 10.1223C34.3533 9.86841 34.0538 9.74146 33.6762 9.74146ZM40.1606 14.3801C40.1085 14.276 40.0662 14.0904 40.0336 13.8235C39.6137 14.2597 39.1124 14.4778 38.5297 14.4778C38.0089 14.4778 37.5808 14.3313 37.2455 14.0383C36.9135 13.7421 36.7475 13.3678 36.7475 12.9153C36.7475 12.3652 36.9558 11.9387 37.3725 11.636C37.7924 11.33 38.3816 11.177 39.1401 11.177H40.019V10.762C40.019 10.4462 39.9246 10.1956 39.7358 10.01C39.547 9.82121 39.2687 9.72681 38.9008 9.72681C38.5786 9.72681 38.3084 9.80819 38.0903 9.97095C37.8722 10.1337 37.7631 10.3306 37.7631 10.5618H36.8549C36.8549 10.2981 36.9477 10.0442 37.1332 9.80005C37.322 9.55265 37.5759 9.35734 37.895 9.21411C38.2172 9.07088 38.5704 8.99927 38.9545 8.99927C39.5633 8.99927 40.0401 9.15226 40.3852 9.45825C40.7302 9.76099 40.9093 10.1793 40.9223 10.7131V13.1448C40.9223 13.6298 40.9842 14.0155 41.1078 14.302V14.3801H40.1606ZM38.6616 13.6917C38.9448 13.6917 39.2133 13.6184 39.4672 13.4719C39.7211 13.3254 39.905 13.135 40.019 12.9006V11.8167H39.311C38.2042 11.8167 37.6508 12.1405 37.6508 12.7883C37.6508 13.0715 37.7452 13.2929 37.934 13.4524C38.1228 13.6119 38.3653 13.6917 38.6616 13.6917ZM44.892 9.90747C44.7553 9.88468 44.6072 9.87329 44.4477 9.87329C43.8552 9.87329 43.4532 10.1256 43.2416 10.6301V14.3801H42.3383V9.09692H43.2172L43.2319 9.70728C43.5281 9.23527 43.948 8.99927 44.4916 8.99927C44.6674 8.99927 44.8009 9.02205 44.892 9.06763V9.90747ZM46.5815 9.09692L46.6108 9.76099C47.0144 9.25317 47.5418 8.99927 48.1928 8.99927C49.3093 8.99927 49.8725 9.62915 49.8823 10.8889V14.3801H48.9789V10.884C48.9757 10.5032 48.8878 10.2216 48.7153 10.0393C48.546 9.85701 48.2807 9.76587 47.9194 9.76587C47.6264 9.76587 47.3692 9.84399 47.1479 10.0002C46.9265 10.1565 46.754 10.3616 46.6303 10.6155V14.3801H45.727V9.09692H46.5815ZM57.6752 7.81763V9.09692H58.6616V9.79517H57.6752V13.0715C57.6752 13.2831 57.7192 13.4426 57.8071 13.55C57.895 13.6542 58.0447 13.7063 58.2563 13.7063C58.3605 13.7063 58.5037 13.6868 58.686 13.6477V14.3801C58.4483 14.4452 58.2172 14.4778 57.9926 14.4778C57.589 14.4778 57.2846 14.3557 57.0795 14.1116C56.8745 13.8674 56.7719 13.5208 56.7719 13.0715V9.79517H55.81V9.09692H56.7719V7.81763H57.6752Z" fill="black" fill-opacity="0.75"/>
<path d="M27.2993 13.6135H30.6684V14.3801H26.3569V7.27075H27.2993V13.6135ZM54.8725 14.3801H53.935V7.27075H54.8725V14.3801Z" fill="#1C19A1"/>
<path d="M65.2337 16.5576H84.5928V18.1496H65.2337V16.5576Z" fill="black"/>
<path d="M67.4675 14.0102C67.4675 13.8413 67.389 13.6794 67.2494 13.5599C67.1098 13.4405 66.9204 13.3734 66.7229 13.3734H65.9783C65.7808 13.3734 65.5915 13.4405 65.4518 13.5599C65.3122 13.6794 65.2337 13.8413 65.2337 14.0102V14.2889H67.4675V14.0102Z" fill="black"/>
<path d="M64.1169 14.9655H85.7096V15.9207H64.1169V14.9655Z" fill="black"/>
<path d="M82.7313 14.3287H83.8482C84.0457 14.3287 84.2351 14.2616 84.3747 14.1421C84.5143 14.0227 84.5928 13.8607 84.5928 13.6918V12.0998H81.9868V13.6918C81.9868 13.8607 82.0652 14.0227 82.2048 14.1421C82.3445 14.2616 82.5339 14.3287 82.7313 14.3287Z" fill="black"/>
<path d="M82.1208 11.4629H82.8653C82.8653 11.3855 82.8874 11.3591 82.9999 11.2589C83.136 11.1375 83.3419 10.9542 83.3419 10.6138C83.3419 10.2734 83.1361 10.0901 82.9999 9.96874C82.8874 9.86848 82.8653 9.84209 82.8653 9.76463C82.8653 9.68718 82.8874 9.66087 82.9999 9.56069C83.136 9.43933 83.3419 9.256 83.3419 8.91562H82.5973C82.5973 8.99303 82.5752 9.01938 82.4627 9.11964C82.3265 9.24096 82.1208 9.42429 82.1208 9.76443C82.1208 10.1046 82.3265 10.2882 82.4627 10.4095C82.5752 10.5098 82.5973 10.5362 82.5973 10.6136C82.5973 10.691 82.5752 10.7174 82.4627 10.8177C82.3264 10.9392 82.1208 11.1226 82.1208 11.4629Z" fill="black"/>
<path d="M83.6099 11.4629H84.3545C84.3545 11.3855 84.3766 11.3591 84.489 11.2589C84.6252 11.1375 84.831 10.9542 84.831 10.6138C84.831 10.2734 84.6252 10.0901 84.489 9.96874C84.3766 9.86848 84.3545 9.84209 84.3545 9.76463C84.3545 9.68718 84.3766 9.66087 84.489 9.56069C84.6252 9.43933 84.831 9.256 84.831 8.91562H84.0865C84.0865 8.99303 84.0644 9.01938 83.9519 9.11964C83.8157 9.24096 83.6099 9.42429 83.6099 9.76443C83.6099 10.1046 83.8157 10.2882 83.9519 10.4095C84.0644 10.5098 84.0865 10.5362 84.0865 10.6136C84.0865 10.691 84.0644 10.7174 83.9519 10.8177C83.8156 10.9392 83.6099 11.1226 83.6099 11.4629Z" fill="black"/>
<path d="M74.9133 6.04989C76.1469 6.04989 77.147 5.19454 77.147 4.1394C77.147 3.08427 76.1469 2.22891 74.9133 2.22891C73.6796 2.22891 72.6795 3.08427 72.6795 4.1394C72.6795 5.19454 73.6796 6.04989 74.9133 6.04989Z" fill="black"/>
<path d="M80.1253 14.3287L80.8699 7.96036H68.9566L69.7012 14.3287H80.1253ZM74.9132 10.1893C75.1341 10.1893 75.3501 10.2453 75.5337 10.3502C75.7174 10.4552 75.8606 10.6044 75.9451 10.7789C76.0296 10.9535 76.0517 11.1456 76.0087 11.3309C75.9656 11.5162 75.8592 11.6864 75.703 11.82C75.5468 11.9536 75.3478 12.0445 75.1311 12.0814C74.9145 12.1183 74.6899 12.0993 74.4858 12.027C74.2818 11.9547 74.1073 11.8323 73.9846 11.6752C73.8619 11.5181 73.7964 11.3334 73.7964 11.1445C73.7964 10.8912 73.914 10.6482 74.1235 10.469C74.333 10.2899 74.617 10.1893 74.9132 10.1893V10.1893Z" fill="black"/>
<path d="M77.5193 6.0499H72.3072C71.9123 6.0499 71.5335 6.18409 71.2542 6.42294C70.975 6.6618 70.8181 6.98576 70.8181 7.32355H79.0084C79.0084 6.98576 78.8515 6.6618 78.5723 6.42294C78.293 6.18409 77.9142 6.0499 77.5193 6.0499Z" fill="black"/>
</svg>
